<?xml version="1.0" encoding="UTF-8"?>
<svg xmlns="http://www.w3.org/2000/svg" width="800" height="420" viewBox="0 0 800 420">
  <rect width="100%" height="100%" fill="#0d1117"/>
  <text x="400" y="22" fill="#e6edf3" font-family="system-ui,sans-serif" font-size="15" font-weight="600" text-anchor="middle">Miooowo/STS2-MoreEnchantStandalone · Release History</text>
  <line x1="58" y1="36.00" x2="738" y2="36.00" stroke="#30363d" stroke-width="1"/><line x1="58" y1="119.00" x2="738" y2="119.00" stroke="#30363d" stroke-width="1"/><line x1="58" y1="202.00" x2="738" y2="202.00" stroke="#30363d" stroke-width="1"/><line x1="58" y1="285.00" x2="738" y2="285.00" stroke="#30363d" stroke-width="1"/><line x1="58" y1="368.00" x2="738" y2="368.00" stroke="#30363d" stroke-width="1"/>
  <path d="M 58.00,356.93 L 61.33,345.87 L 61.79,334.80 L 81.22,323.73 L 83.03,312.67 L 83.07,301.60 L 95.52,290.53 L 112.97,279.47 L 115.54,268.40 L 124.24,257.33 L 127.28,246.27 L 133.45,235.20 L 140.64,224.13 L 142.83,213.07 L 149.02,202.00 L 164.91,190.93 L 361.31,179.87 L 368.20,168.80 L 401.89,157.73 L 406.44,146.67 L 408.21,135.60 L 421.23,124.53 L 517.15,113.47 L 544.55,102.40 L 555.59,91.33 L 579.67,80.27 L 592.61,69.20 L 667.95,58.13 L 668.10,47.07 L 738.00,36.00 L 738.00 368.00 L 58.00 368.00 Z" fill="rgba(88,166,255,0.15)" stroke="none"/>
  <path d="M 58.00,356.93 L 61.33,345.87 L 61.79,334.80 L 81.22,323.73 L 83.03,312.67 L 83.07,301.60 L 95.52,290.53 L 112.97,279.47 L 115.54,268.40 L 124.24,257.33 L 127.28,246.27 L 133.45,235.20 L 140.64,224.13 L 142.83,213.07 L 149.02,202.00 L 164.91,190.93 L 361.31,179.87 L 368.20,168.80 L 401.89,157.73 L 406.44,146.67 L 408.21,135.60 L 421.23,124.53 L 517.15,113.47 L 544.55,102.40 L 555.59,91.33 L 579.67,80.27 L 592.61,69.20 L 667.95,58.13 L 668.10,47.07 L 738.00,36.00" fill="none" stroke="#58a6ff" stroke-width="2.5" stroke-linejoin="round" stroke-linecap="round"/>
  <path d="M 58.00,368.00 L 61.33,337.83 L 61.79,337.80 L 81.22,337.77 L 83.03,307.65 L 83.07,307.62 L 95.52,277.48 L 112.97,247.31 L 115.54,217.13 L 124.24,186.96 L 127.28,186.93 L 133.45,186.90 L 140.64,186.87 L 142.83,186.84 L 149.02,186.81 L 164.91,156.78 L 361.31,126.61 L 368.20,126.58 L 401.89,126.58 L 406.44,96.44 L 408.21,96.41 L 421.23,66.26 L 517.15,66.23 L 544.55,66.23 L 555.59,66.23 L 579.67,36.09 L 592.61,36.06 L 667.95,36.03 L 668.10,36.03 L 738.00,36.00" fill="none" stroke="#a371f7" stroke-width="2.5" stroke-linejoin="round" stroke-linecap="round"/>
  <text x="58" y="402" fill="#8b949e" font-family="system-ui,sans-serif" font-size="11" text-anchor="start">2026-04-03</text>
  <text x="738" y="402" fill="#8b949e" font-family="system-ui,sans-serif" font-size="11" text-anchor="end">2026-07-19</text>
  <text x="58" y="416" fill="#58a6ff" font-family="system-ui,sans-serif" font-size="11" text-anchor="start">累积 Release</text>
  <text x="738" y="416" fill="#a371f7" font-family="system-ui,sans-serif" font-size="11" text-anchor="end">语义化版本</text>
  <text x="50" y="40" fill="#8b949e" font-family="system-ui,sans-serif" font-size="11" text-anchor="end">30</text><text x="50" y="123" fill="#8b949e" font-family="system-ui,sans-serif" font-size="11" text-anchor="end">23</text><text x="50" y="206" fill="#8b949e" font-family="system-ui,sans-serif" font-size="11" text-anchor="end">15</text><text x="50" y="289" fill="#8b949e" font-family="system-ui,sans-serif" font-size="11" text-anchor="end">8</text><text x="50" y="372" fill="#8b949e" font-family="system-ui,sans-serif" font-size="11" text-anchor="end">0</text>
  <text x="746" y="40" fill="#c9a8ff" font-family="system-ui,sans-serif" font-size="11" text-anchor="start">0.12.3</text><text x="746" y="123" fill="#c9a8ff" font-family="system-ui,sans-serif" font-size="11" text-anchor="start">0.9.252</text><text x="746" y="206" fill="#c9a8ff" font-family="system-ui,sans-serif" font-size="11" text-anchor="start">0.6.502</text><text x="746" y="289" fill="#c9a8ff" font-family="system-ui,sans-serif" font-size="11" text-anchor="start">0.3.751</text><text x="746" y="372" fill="#c9a8ff" font-family="system-ui,sans-serif" font-size="11" text-anchor="start">0.1.0</text>
</svg>