<?xml version="1.0" encoding="UTF-8"?>
<svg xmlns="http://www.w3.org/2000/svg" width="800" height="420" viewBox="0 0 800 420">
  <rect width="100%" height="100%" fill="#0d1117"/>
  <text x="400" y="22" fill="#e6edf3" font-family="system-ui,sans-serif" font-size="15" font-weight="600" text-anchor="middle">Miooowo/STS2-MoreEnchantStandalone · Release History</text>
  <line x1="58" y1="36.00" x2="738" y2="36.00" stroke="#30363d" stroke-width="1"/><line x1="58" y1="119.00" x2="738" y2="119.00" stroke="#30363d" stroke-width="1"/><line x1="58" y1="202.00" x2="738" y2="202.00" stroke="#30363d" stroke-width="1"/><line x1="58" y1="285.00" x2="738" y2="285.00" stroke="#30363d" stroke-width="1"/><line x1="58" y1="368.00" x2="738" y2="368.00" stroke="#30363d" stroke-width="1"/>
  <path d="M 58.00,356.55 L 61.71,345.10 L 62.22,333.66 L 83.88,322.21 L 85.90,310.76 L 85.94,299.31 L 99.82,287.86 L 119.27,276.41 L 122.13,264.97 L 131.83,253.52 L 135.22,242.07 L 142.10,230.62 L 150.11,219.17 L 152.55,207.72 L 159.45,196.28 L 177.15,184.83 L 396.06,173.38 L 403.74,161.93 L 441.29,150.48 L 446.36,139.03 L 448.33,127.59 L 462.84,116.14 L 569.75,104.69 L 600.29,93.24 L 612.60,81.79 L 639.44,70.34 L 653.86,58.90 L 737.83,47.45 L 738.00,36.00 L 738.00 368.00 L 58.00 368.00 Z" fill="rgba(88,166,255,0.15)" stroke="none"/>
  <path d="M 58.00,356.55 L 61.71,345.10 L 62.22,333.66 L 83.88,322.21 L 85.90,310.76 L 85.94,299.31 L 99.82,287.86 L 119.27,276.41 L 122.13,264.97 L 131.83,253.52 L 135.22,242.07 L 142.10,230.62 L 150.11,219.17 L 152.55,207.72 L 159.45,196.28 L 177.15,184.83 L 396.06,173.38 L 403.74,161.93 L 441.29,150.48 L 446.36,139.03 L 448.33,127.59 L 462.84,116.14 L 569.75,104.69 L 600.29,93.24 L 612.60,81.79 L 639.44,70.34 L 653.86,58.90 L 737.83,47.45 L 738.00,36.00" fill="none" stroke="#58a6ff" stroke-width="2.5" stroke-linejoin="round" stroke-linecap="round"/>
  <path d="M 58.00,368.00 L 61.71,337.82 L 62.22,337.79 L 83.88,337.76 L 85.90,307.65 L 85.94,307.62 L 99.82,277.47 L 119.27,247.29 L 122.13,217.12 L 131.83,186.94 L 135.22,186.91 L 142.10,186.88 L 150.11,186.85 L 152.55,186.82 L 159.45,186.79 L 177.15,156.77 L 396.06,126.59 L 403.74,126.56 L 441.29,126.56 L 446.36,96.41 L 448.33,96.38 L 462.84,66.24 L 569.75,66.21 L 600.29,66.21 L 612.60,66.21 L 639.44,36.06 L 653.86,36.03 L 737.83,36.00 L 738.00,36.00" fill="none" stroke="#a371f7" stroke-width="2.5" stroke-linejoin="round" stroke-linecap="round"/>
  <text x="58" y="402" fill="#8b949e" font-family="system-ui,sans-serif" font-size="11" text-anchor="start">2026-04-03</text>
  <text x="738" y="402" fill="#8b949e" font-family="system-ui,sans-serif" font-size="11" text-anchor="end">2026-07-08</text>
  <text x="58" y="416" fill="#58a6ff" font-family="system-ui,sans-serif" font-size="11" text-anchor="start">累积 Release</text>
  <text x="738" y="416" fill="#a371f7" font-family="system-ui,sans-serif" font-size="11" text-anchor="end">语义化版本</text>
  <text x="50" y="40" fill="#8b949e" font-family="system-ui,sans-serif" font-size="11" text-anchor="end">29</text><text x="50" y="123" fill="#8b949e" font-family="system-ui,sans-serif" font-size="11" text-anchor="end">22</text><text x="50" y="206" fill="#8b949e" font-family="system-ui,sans-serif" font-size="11" text-anchor="end">15</text><text x="50" y="289" fill="#8b949e" font-family="system-ui,sans-serif" font-size="11" text-anchor="end">7</text><text x="50" y="372" fill="#8b949e" font-family="system-ui,sans-serif" font-size="11" text-anchor="end">0</text>
  <text x="746" y="40" fill="#c9a8ff" font-family="system-ui,sans-serif" font-size="11" text-anchor="start">0.12.2</text><text x="746" y="123" fill="#c9a8ff" font-family="system-ui,sans-serif" font-size="11" text-anchor="start">0.9.252</text><text x="746" y="206" fill="#c9a8ff" font-family="system-ui,sans-serif" font-size="11" text-anchor="start">0.6.501</text><text x="746" y="289" fill="#c9a8ff" font-family="system-ui,sans-serif" font-size="11" text-anchor="start">0.3.751</text><text x="746" y="372" fill="#c9a8ff" font-family="system-ui,sans-serif" font-size="11" text-anchor="start">0.1.0</text>
</svg>