<?xml version="1.0" encoding="UTF-8"?>
<svg xmlns="http://www.w3.org/2000/svg" width="800" height="420" viewBox="0 0 800 420">
  <rect width="100%" height="100%" fill="#0d1117"/>
  <text x="400" y="22" fill="#e6edf3" font-family="system-ui,sans-serif" font-size="15" font-weight="600" text-anchor="middle">Miooowo/STS2-MoreEnchantStandalone · Release History</text>
  <line x1="58" y1="36.00" x2="738" y2="36.00" stroke="#30363d" stroke-width="1"/><line x1="58" y1="119.00" x2="738" y2="119.00" stroke="#30363d" stroke-width="1"/><line x1="58" y1="202.00" x2="738" y2="202.00" stroke="#30363d" stroke-width="1"/><line x1="58" y1="285.00" x2="738" y2="285.00" stroke="#30363d" stroke-width="1"/><line x1="58" y1="368.00" x2="738" y2="368.00" stroke="#30363d" stroke-width="1"/>
  <path d="M 58.00,337.82 L 90.68,307.64 L 95.17,277.45 L 285.92,247.27 L 303.69,217.09 L 304.02,186.91 L 426.27,156.73 L 597.52,126.55 L 622.72,96.36 L 708.12,66.18 L 738.00,36.00 L 738.00 368.00 L 58.00 368.00 Z" fill="rgba(88,166,255,0.15)" stroke="none"/>
  <path d="M 58.00,337.82 L 90.68,307.64 L 95.17,277.45 L 285.92,247.27 L 303.69,217.09 L 304.02,186.91 L 426.27,156.73 L 597.52,126.55 L 622.72,96.36 L 708.12,66.18 L 738.00,36.00" fill="none" stroke="#58a6ff" stroke-width="2.5" stroke-linejoin="round" stroke-linecap="round"/>
  <path d="M 58.00,368.00 L 90.68,312.68 L 95.17,312.62 L 285.92,312.57 L 303.69,257.35 L 304.02,257.30 L 426.27,202.03 L 597.52,146.70 L 622.72,91.38 L 708.12,36.06 L 738.00,36.00" fill="none" stroke="#a371f7" stroke-width="2.5" stroke-linejoin="round" stroke-linecap="round"/>
  <text x="58" y="402" fill="#8b949e" font-family="system-ui,sans-serif" font-size="11" text-anchor="start">2026-04-03</text>
  <text x="738" y="402" fill="#8b949e" font-family="system-ui,sans-serif" font-size="11" text-anchor="end">2026-04-14</text>
  <text x="58" y="416" fill="#58a6ff" font-family="system-ui,sans-serif" font-size="11" text-anchor="start">累积 Release</text>
  <text x="738" y="416" fill="#a371f7" font-family="system-ui,sans-serif" font-size="11" text-anchor="end">语义化版本</text>
  <text x="50" y="40" fill="#8b949e" font-family="system-ui,sans-serif" font-size="11" text-anchor="end">11</text><text x="50" y="123" fill="#8b949e" font-family="system-ui,sans-serif" font-size="11" text-anchor="end">8</text><text x="50" y="206" fill="#8b949e" font-family="system-ui,sans-serif" font-size="11" text-anchor="end">6</text><text x="50" y="289" fill="#8b949e" font-family="system-ui,sans-serif" font-size="11" text-anchor="end">3</text><text x="50" y="372" fill="#8b949e" font-family="system-ui,sans-serif" font-size="11" text-anchor="end">0</text>
  <text x="746" y="40" fill="#c9a8ff" font-family="system-ui,sans-serif" font-size="11" text-anchor="start">0.7.1</text><text x="746" y="123" fill="#c9a8ff" font-family="system-ui,sans-serif" font-size="11" text-anchor="start">0.5.501</text><text x="746" y="206" fill="#c9a8ff" font-family="system-ui,sans-serif" font-size="11" text-anchor="start">0.4.1</text><text x="746" y="289" fill="#c9a8ff" font-family="system-ui,sans-serif" font-size="11" text-anchor="start">0.2.500</text><text x="746" y="372" fill="#c9a8ff" font-family="system-ui,sans-serif" font-size="11" text-anchor="start">0.1.0</text>
</svg>