<?xml version="1.0" encoding="UTF-8"?>
<svg xmlns="http://www.w3.org/2000/svg" width="800" height="420" viewBox="0 0 800 420">
  <rect width="100%" height="100%" fill="#0d1117"/>
  <text x="400" y="22" fill="#e6edf3" font-family="system-ui,sans-serif" font-size="15" font-weight="600" text-anchor="middle">Miooowo/STS2-MoreEnchantStandalone · Release History</text>
  <line x1="58" y1="36.00" x2="738" y2="36.00" stroke="#30363d" stroke-width="1"/><line x1="58" y1="119.00" x2="738" y2="119.00" stroke="#30363d" stroke-width="1"/><line x1="58" y1="202.00" x2="738" y2="202.00" stroke="#30363d" stroke-width="1"/><line x1="58" y1="285.00" x2="738" y2="285.00" stroke="#30363d" stroke-width="1"/><line x1="58" y1="368.00" x2="738" y2="368.00" stroke="#30363d" stroke-width="1"/>
  <path d="M 58.00,352.91 L 64.23,337.82 L 65.09,322.73 L 101.47,307.64 L 104.86,292.55 L 104.93,277.45 L 128.24,262.36 L 160.91,247.27 L 165.72,232.18 L 182.00,217.09 L 187.70,202.00 L 199.25,186.91 L 212.71,171.82 L 216.81,156.73 L 228.40,141.64 L 258.14,126.55 L 625.83,111.45 L 638.73,96.36 L 701.80,81.27 L 710.32,66.18 L 713.62,51.09 L 738.00,36.00 L 738.00 368.00 L 58.00 368.00 Z" fill="rgba(88,166,255,0.15)" stroke="none"/>
  <path d="M 58.00,352.91 L 64.23,337.82 L 65.09,322.73 L 101.47,307.64 L 104.86,292.55 L 104.93,277.45 L 128.24,262.36 L 160.91,247.27 L 165.72,232.18 L 182.00,217.09 L 187.70,202.00 L 199.25,186.91 L 212.71,171.82 L 216.81,156.73 L 228.40,141.64 L 258.14,126.55 L 625.83,111.45 L 638.73,96.36 L 701.80,81.27 L 710.32,66.18 L 713.62,51.09 L 738.00,36.00" fill="none" stroke="#58a6ff" stroke-width="2.5" stroke-linejoin="round" stroke-linecap="round"/>
  <path d="M 58.00,368.00 L 64.23,334.80 L 65.09,334.77 L 101.47,334.73 L 104.86,301.60 L 104.93,301.57 L 128.24,268.40 L 160.91,235.20 L 165.72,202.00 L 182.00,168.80 L 187.70,168.77 L 199.25,168.73 L 212.71,168.70 L 216.81,168.67 L 228.40,168.63 L 258.14,135.60 L 625.83,102.40 L 638.73,102.37 L 701.80,102.37 L 710.32,69.20 L 713.62,69.17 L 738.00,36.00" fill="none" stroke="#a371f7" stroke-width="2.5" stroke-linejoin="round" stroke-linecap="round"/>
  <text x="58" y="402" fill="#8b949e" font-family="system-ui,sans-serif" font-size="11" text-anchor="start">2026-04-03</text>
  <text x="738" y="402" fill="#8b949e" font-family="system-ui,sans-serif" font-size="11" text-anchor="end">2026-05-30</text>
  <text x="58" y="416" fill="#58a6ff" font-family="system-ui,sans-serif" font-size="11" text-anchor="start">累积 Release</text>
  <text x="738" y="416" fill="#a371f7" font-family="system-ui,sans-serif" font-size="11" text-anchor="end">语义化版本</text>
  <text x="50" y="40" fill="#8b949e" font-family="system-ui,sans-serif" font-size="11" text-anchor="end">22</text><text x="50" y="123" fill="#8b949e" font-family="system-ui,sans-serif" font-size="11" text-anchor="end">17</text><text x="50" y="206" fill="#8b949e" font-family="system-ui,sans-serif" font-size="11" text-anchor="end">11</text><text x="50" y="289" fill="#8b949e" font-family="system-ui,sans-serif" font-size="11" text-anchor="end">6</text><text x="50" y="372" fill="#8b949e" font-family="system-ui,sans-serif" font-size="11" text-anchor="end">0</text>
  <text x="746" y="40" fill="#c9a8ff" font-family="system-ui,sans-serif" font-size="11" text-anchor="start">0.11.0</text><text x="746" y="123" fill="#c9a8ff" font-family="system-ui,sans-serif" font-size="11" text-anchor="start">0.8.500</text><text x="746" y="206" fill="#c9a8ff" font-family="system-ui,sans-serif" font-size="11" text-anchor="start">0.6.0</text><text x="746" y="289" fill="#c9a8ff" font-family="system-ui,sans-serif" font-size="11" text-anchor="start">0.3.500</text><text x="746" y="372" fill="#c9a8ff" font-family="system-ui,sans-serif" font-size="11" text-anchor="start">0.1.0</text>
</svg>