<?xml version="1.0" encoding="UTF-8"?>
<svg xmlns="http://www.w3.org/2000/svg" width="800" height="420" viewBox="0 0 800 420">
  <rect width="100%" height="100%" fill="#0d1117"/>
  <text x="400" y="22" fill="#e6edf3" font-family="system-ui,sans-serif" font-size="15" font-weight="600" text-anchor="middle">Miooowo/STS2-MoreEnchantStandalone · Release History</text>
  <line x1="58" y1="36.00" x2="738" y2="36.00" stroke="#30363d" stroke-width="1"/><line x1="58" y1="119.00" x2="738" y2="119.00" stroke="#30363d" stroke-width="1"/><line x1="58" y1="202.00" x2="738" y2="202.00" stroke="#30363d" stroke-width="1"/><line x1="58" y1="285.00" x2="738" y2="285.00" stroke="#30363d" stroke-width="1"/><line x1="58" y1="368.00" x2="738" y2="368.00" stroke="#30363d" stroke-width="1"/>
  <path d="M 58.00,355.70 L 62.23,343.41 L 62.82,331.11 L 87.54,318.81 L 89.84,306.52 L 89.88,294.22 L 105.73,281.93 L 127.92,269.63 L 131.19,257.33 L 142.25,245.04 L 146.12,232.74 L 153.97,220.44 L 163.12,208.15 L 165.90,195.85 L 173.77,183.56 L 193.98,171.26 L 443.80,158.96 L 452.56,146.67 L 495.41,134.37 L 501.20,122.07 L 503.45,109.78 L 520.01,97.48 L 642.02,85.19 L 676.87,72.89 L 690.91,60.59 L 721.54,48.30 L 738.00,36.00 L 738.00 368.00 L 58.00 368.00 Z" fill="rgba(88,166,255,0.15)" stroke="none"/>
  <path d="M 58.00,355.70 L 62.23,343.41 L 62.82,331.11 L 87.54,318.81 L 89.84,306.52 L 89.88,294.22 L 105.73,281.93 L 127.92,269.63 L 131.19,257.33 L 142.25,245.04 L 146.12,232.74 L 153.97,220.44 L 163.12,208.15 L 165.90,195.85 L 173.77,183.56 L 193.98,171.26 L 443.80,158.96 L 452.56,146.67 L 495.41,134.37 L 501.20,122.07 L 503.45,109.78 L 520.01,97.48 L 642.02,85.19 L 676.87,72.89 L 690.91,60.59 L 721.54,48.30 L 738.00,36.00" fill="none" stroke="#58a6ff" stroke-width="2.5" stroke-linejoin="round" stroke-linecap="round"/>
  <path d="M 58.00,368.00 L 62.23,337.82 L 62.82,337.79 L 87.54,337.76 L 89.84,307.64 L 89.88,307.61 L 105.73,277.46 L 127.92,247.28 L 131.19,217.10 L 142.25,186.93 L 146.12,186.90 L 153.97,186.87 L 163.12,186.84 L 165.90,186.80 L 173.77,186.77 L 193.98,156.75 L 443.80,126.57 L 452.56,126.54 L 495.41,126.54 L 501.20,96.39 L 503.45,96.36 L 520.01,66.21 L 642.02,66.18 L 676.87,66.18 L 690.91,66.18 L 721.54,36.03 L 738.00,36.00" fill="none" stroke="#a371f7" stroke-width="2.5" stroke-linejoin="round" stroke-linecap="round"/>
  <text x="58" y="402" fill="#8b949e" font-family="system-ui,sans-serif" font-size="11" text-anchor="start">2026-04-03</text>
  <text x="738" y="402" fill="#8b949e" font-family="system-ui,sans-serif" font-size="11" text-anchor="end">2026-06-26</text>
  <text x="58" y="416" fill="#58a6ff" font-family="system-ui,sans-serif" font-size="11" text-anchor="start">累积 Release</text>
  <text x="738" y="416" fill="#a371f7" font-family="system-ui,sans-serif" font-size="11" text-anchor="end">语义化版本</text>
  <text x="50" y="40" fill="#8b949e" font-family="system-ui,sans-serif" font-size="11" text-anchor="end">27</text><text x="50" y="123" fill="#8b949e" font-family="system-ui,sans-serif" font-size="11" text-anchor="end">20</text><text x="50" y="206" fill="#8b949e" font-family="system-ui,sans-serif" font-size="11" text-anchor="end">14</text><text x="50" y="289" fill="#8b949e" font-family="system-ui,sans-serif" font-size="11" text-anchor="end">7</text><text x="50" y="372" fill="#8b949e" font-family="system-ui,sans-serif" font-size="11" text-anchor="end">0</text>
  <text x="746" y="40" fill="#c9a8ff" font-family="system-ui,sans-serif" font-size="11" text-anchor="start">0.12.1</text><text x="746" y="123" fill="#c9a8ff" font-family="system-ui,sans-serif" font-size="11" text-anchor="start">0.9.251</text><text x="746" y="206" fill="#c9a8ff" font-family="system-ui,sans-serif" font-size="11" text-anchor="start">0.6.501</text><text x="746" y="289" fill="#c9a8ff" font-family="system-ui,sans-serif" font-size="11" text-anchor="start">0.3.750</text><text x="746" y="372" fill="#c9a8ff" font-family="system-ui,sans-serif" font-size="11" text-anchor="start">0.1.0</text>
</svg>