<?xml version="1.0" encoding="UTF-8"?>
<svg xmlns="http://www.w3.org/2000/svg" width="800" height="420" viewBox="0 0 800 420">
  <rect width="100%" height="100%" fill="#0d1117"/>
  <text x="400" y="22" fill="#e6edf3" font-family="system-ui,sans-serif" font-size="15" font-weight="600" text-anchor="middle">Miooowo/STS2-MoreEnchantStandalone · Release History</text>
  <line x1="58" y1="36.00" x2="738" y2="36.00" stroke="#30363d" stroke-width="1"/><line x1="58" y1="119.00" x2="738" y2="119.00" stroke="#30363d" stroke-width="1"/><line x1="58" y1="202.00" x2="738" y2="202.00" stroke="#30363d" stroke-width="1"/><line x1="58" y1="285.00" x2="738" y2="285.00" stroke="#30363d" stroke-width="1"/><line x1="58" y1="368.00" x2="738" y2="368.00" stroke="#30363d" stroke-width="1"/>
  <path d="M 58.00,353.57 L 62.93,339.13 L 63.61,324.70 L 92.39,310.26 L 95.07,295.83 L 95.12,281.39 L 113.57,266.96 L 139.41,252.52 L 143.21,238.09 L 156.10,223.65 L 160.61,209.22 L 169.74,194.78 L 180.39,180.35 L 183.63,165.91 L 192.80,151.48 L 216.33,137.04 L 507.21,122.61 L 517.40,108.17 L 567.30,93.74 L 574.04,79.30 L 576.66,64.87 L 595.94,50.43 L 738.00,36.00 L 738.00 368.00 L 58.00 368.00 Z" fill="rgba(88,166,255,0.15)" stroke="none"/>
  <path d="M 58.00,353.57 L 62.93,339.13 L 63.61,324.70 L 92.39,310.26 L 95.07,295.83 L 95.12,281.39 L 113.57,266.96 L 139.41,252.52 L 143.21,238.09 L 156.10,223.65 L 160.61,209.22 L 169.74,194.78 L 180.39,180.35 L 183.63,165.91 L 192.80,151.48 L 216.33,137.04 L 507.21,122.61 L 517.40,108.17 L 567.30,93.74 L 574.04,79.30 L 576.66,64.87 L 595.94,50.43 L 738.00,36.00" fill="none" stroke="#58a6ff" stroke-width="2.5" stroke-linejoin="round" stroke-linecap="round"/>
  <path d="M 58.00,368.00 L 62.93,334.80 L 63.61,334.77 L 92.39,334.74 L 95.07,301.61 L 95.12,301.57 L 113.57,268.41 L 139.41,235.21 L 143.21,202.02 L 156.10,168.82 L 160.61,168.79 L 169.74,168.75 L 180.39,168.72 L 183.63,168.69 L 192.80,168.65 L 216.33,135.62 L 507.21,102.43 L 517.40,102.39 L 567.30,102.39 L 574.04,69.23 L 576.66,69.20 L 595.94,36.03 L 738.00,36.00" fill="none" stroke="#a371f7" stroke-width="2.5" stroke-linejoin="round" stroke-linecap="round"/>
  <text x="58" y="402" fill="#8b949e" font-family="system-ui,sans-serif" font-size="11" text-anchor="start">2026-04-03</text>
  <text x="738" y="402" fill="#8b949e" font-family="system-ui,sans-serif" font-size="11" text-anchor="end">2026-06-14</text>
  <text x="58" y="416" fill="#58a6ff" font-family="system-ui,sans-serif" font-size="11" text-anchor="start">累积 Release</text>
  <text x="738" y="416" fill="#a371f7" font-family="system-ui,sans-serif" font-size="11" text-anchor="end">语义化版本</text>
  <text x="50" y="40" fill="#8b949e" font-family="system-ui,sans-serif" font-size="11" text-anchor="end">23</text><text x="50" y="123" fill="#8b949e" font-family="system-ui,sans-serif" font-size="11" text-anchor="end">17</text><text x="50" y="206" fill="#8b949e" font-family="system-ui,sans-serif" font-size="11" text-anchor="end">12</text><text x="50" y="289" fill="#8b949e" font-family="system-ui,sans-serif" font-size="11" text-anchor="end">6</text><text x="50" y="372" fill="#8b949e" font-family="system-ui,sans-serif" font-size="11" text-anchor="end">0</text>
  <text x="746" y="40" fill="#c9a8ff" font-family="system-ui,sans-serif" font-size="11" text-anchor="start">0.11.1</text><text x="746" y="123" fill="#c9a8ff" font-family="system-ui,sans-serif" font-size="11" text-anchor="start">0.8.501</text><text x="746" y="206" fill="#c9a8ff" font-family="system-ui,sans-serif" font-size="11" text-anchor="start">0.6.1</text><text x="746" y="289" fill="#c9a8ff" font-family="system-ui,sans-serif" font-size="11" text-anchor="start">0.3.500</text><text x="746" y="372" fill="#c9a8ff" font-family="system-ui,sans-serif" font-size="11" text-anchor="start">0.1.0</text>
</svg>