<?xml version="1.0" encoding="UTF-8"?>
<svg xmlns="http://www.w3.org/2000/svg" width="800" height="420" viewBox="0 0 800 420">
  <rect width="100%" height="100%" fill="#0d1117"/>
  <text x="400" y="22" fill="#e6edf3" font-family="system-ui,sans-serif" font-size="15" font-weight="600" text-anchor="middle">Miooowo/STS2-MoreEnchantStandalone · Release History</text>
  <line x1="58" y1="36.00" x2="738" y2="36.00" stroke="#30363d" stroke-width="1"/><line x1="58" y1="119.00" x2="738" y2="119.00" stroke="#30363d" stroke-width="1"/><line x1="58" y1="202.00" x2="738" y2="202.00" stroke="#30363d" stroke-width="1"/><line x1="58" y1="285.00" x2="738" y2="285.00" stroke="#30363d" stroke-width="1"/><line x1="58" y1="368.00" x2="738" y2="368.00" stroke="#30363d" stroke-width="1"/>
  <path d="M 58.00,354.72 L 62.55,341.44 L 63.18,328.16 L 89.73,314.88 L 92.21,301.60 L 92.25,288.32 L 109.28,275.04 L 133.12,261.76 L 136.63,248.48 L 148.52,235.20 L 152.68,221.92 L 161.11,208.64 L 170.94,195.36 L 173.93,182.08 L 182.39,168.80 L 204.10,155.52 L 472.50,142.24 L 481.91,128.96 L 527.96,115.68 L 534.18,102.40 L 536.59,89.12 L 554.38,75.84 L 685.47,62.56 L 722.91,49.28 L 738.00,36.00 L 738.00 368.00 L 58.00 368.00 Z" fill="rgba(88,166,255,0.15)" stroke="none"/>
  <path d="M 58.00,354.72 L 62.55,341.44 L 63.18,328.16 L 89.73,314.88 L 92.21,301.60 L 92.25,288.32 L 109.28,275.04 L 133.12,261.76 L 136.63,248.48 L 148.52,235.20 L 152.68,221.92 L 161.11,208.64 L 170.94,195.36 L 173.93,182.08 L 182.39,168.80 L 204.10,155.52 L 472.50,142.24 L 481.91,128.96 L 527.96,115.68 L 534.18,102.40 L 536.59,89.12 L 554.38,75.84 L 685.47,62.56 L 722.91,49.28 L 738.00,36.00" fill="none" stroke="#58a6ff" stroke-width="2.5" stroke-linejoin="round" stroke-linecap="round"/>
  <path d="M 58.00,368.00 L 62.55,334.80 L 63.18,334.77 L 89.73,334.74 L 92.21,301.61 L 92.25,301.57 L 109.28,268.41 L 133.12,235.21 L 136.63,202.02 L 148.52,168.82 L 152.68,168.79 L 161.11,168.75 L 170.94,168.72 L 173.93,168.69 L 182.39,168.65 L 204.10,135.62 L 472.50,102.43 L 481.91,102.39 L 527.96,102.39 L 534.18,69.23 L 536.59,69.20 L 554.38,36.03 L 685.47,36.00 L 722.91,36.00 L 738.00,36.00" fill="none" stroke="#a371f7" stroke-width="2.5" stroke-linejoin="round" stroke-linecap="round"/>
  <text x="58" y="402" fill="#8b949e" font-family="system-ui,sans-serif" font-size="11" text-anchor="start">2026-04-03</text>
  <text x="738" y="402" fill="#8b949e" font-family="system-ui,sans-serif" font-size="11" text-anchor="end">2026-06-20</text>
  <text x="58" y="416" fill="#58a6ff" font-family="system-ui,sans-serif" font-size="11" text-anchor="start">累积 Release</text>
  <text x="738" y="416" fill="#a371f7" font-family="system-ui,sans-serif" font-size="11" text-anchor="end">语义化版本</text>
  <text x="50" y="40" fill="#8b949e" font-family="system-ui,sans-serif" font-size="11" text-anchor="end">25</text><text x="50" y="123" fill="#8b949e" font-family="system-ui,sans-serif" font-size="11" text-anchor="end">19</text><text x="50" y="206" fill="#8b949e" font-family="system-ui,sans-serif" font-size="11" text-anchor="end">13</text><text x="50" y="289" fill="#8b949e" font-family="system-ui,sans-serif" font-size="11" text-anchor="end">6</text><text x="50" y="372" fill="#8b949e" font-family="system-ui,sans-serif" font-size="11" text-anchor="end">0</text>
  <text x="746" y="40" fill="#c9a8ff" font-family="system-ui,sans-serif" font-size="11" text-anchor="start">0.11.1</text><text x="746" y="123" fill="#c9a8ff" font-family="system-ui,sans-serif" font-size="11" text-anchor="start">0.8.501</text><text x="746" y="206" fill="#c9a8ff" font-family="system-ui,sans-serif" font-size="11" text-anchor="start">0.6.1</text><text x="746" y="289" fill="#c9a8ff" font-family="system-ui,sans-serif" font-size="11" text-anchor="start">0.3.500</text><text x="746" y="372" fill="#c9a8ff" font-family="system-ui,sans-serif" font-size="11" text-anchor="start">0.1.0</text>
</svg>