<?xml version="1.0" encoding="UTF-8"?>
<svg xmlns="http://www.w3.org/2000/svg" width="800" height="420" viewBox="0 0 800 420">
  <rect width="100%" height="100%" fill="#0d1117"/>
  <text x="400" y="22" fill="#e6edf3" font-family="system-ui,sans-serif" font-size="15" font-weight="600" text-anchor="middle">Miooowo/STS2-MoreEnchantStandalone · Release History</text>
  <line x1="58" y1="36.00" x2="738" y2="36.00" stroke="#30363d" stroke-width="1"/><line x1="58" y1="119.00" x2="738" y2="119.00" stroke="#30363d" stroke-width="1"/><line x1="58" y1="202.00" x2="738" y2="202.00" stroke="#30363d" stroke-width="1"/><line x1="58" y1="285.00" x2="738" y2="285.00" stroke="#30363d" stroke-width="1"/><line x1="58" y1="368.00" x2="738" y2="368.00" stroke="#30363d" stroke-width="1"/>
  <path d="M 58.00,342.46 L 85.40,316.92 L 89.16,291.38 L 249.08,265.85 L 263.97,240.31 L 264.25,214.77 L 366.74,189.23 L 510.31,163.69 L 531.44,138.15 L 603.03,112.62 L 628.09,87.08 L 678.84,61.54 L 738.00,36.00 L 738.00 368.00 L 58.00 368.00 Z" fill="rgba(88,166,255,0.15)" stroke="none"/>
  <path d="M 58.00,342.46 L 85.40,316.92 L 89.16,291.38 L 249.08,265.85 L 263.97,240.31 L 264.25,214.77 L 366.74,189.23 L 510.31,163.69 L 531.44,138.15 L 603.03,112.62 L 628.09,87.08 L 678.84,61.54 L 738.00,36.00" fill="none" stroke="#58a6ff" stroke-width="2.5" stroke-linejoin="round" stroke-linecap="round"/>
  <path d="M 58.00,368.00 L 85.40,312.69 L 89.16,312.64 L 249.08,312.58 L 263.97,257.39 L 264.25,257.33 L 366.74,202.08 L 510.31,146.78 L 531.44,91.47 L 603.03,36.17 L 628.09,36.11 L 678.84,36.06 L 738.00,36.00" fill="none" stroke="#a371f7" stroke-width="2.5" stroke-linejoin="round" stroke-linecap="round"/>
  <text x="58" y="402" fill="#8b949e" font-family="system-ui,sans-serif" font-size="11" text-anchor="start">2026-04-03</text>
  <text x="738" y="402" fill="#8b949e" font-family="system-ui,sans-serif" font-size="11" text-anchor="end">2026-04-16</text>
  <text x="58" y="416" fill="#58a6ff" font-family="system-ui,sans-serif" font-size="11" text-anchor="start">累积 Release</text>
  <text x="738" y="416" fill="#a371f7" font-family="system-ui,sans-serif" font-size="11" text-anchor="end">语义化版本</text>
  <text x="50" y="40" fill="#8b949e" font-family="system-ui,sans-serif" font-size="11" text-anchor="end">13</text><text x="50" y="123" fill="#8b949e" font-family="system-ui,sans-serif" font-size="11" text-anchor="end">10</text><text x="50" y="206" fill="#8b949e" font-family="system-ui,sans-serif" font-size="11" text-anchor="end">7</text><text x="50" y="289" fill="#8b949e" font-family="system-ui,sans-serif" font-size="11" text-anchor="end">3</text><text x="50" y="372" fill="#8b949e" font-family="system-ui,sans-serif" font-size="11" text-anchor="end">0</text>
  <text x="746" y="40" fill="#c9a8ff" font-family="system-ui,sans-serif" font-size="11" text-anchor="start">0.7.3</text><text x="746" y="123" fill="#c9a8ff" font-family="system-ui,sans-serif" font-size="11" text-anchor="start">0.5.502</text><text x="746" y="206" fill="#c9a8ff" font-family="system-ui,sans-serif" font-size="11" text-anchor="start">0.4.2</text><text x="746" y="289" fill="#c9a8ff" font-family="system-ui,sans-serif" font-size="11" text-anchor="start">0.2.501</text><text x="746" y="372" fill="#c9a8ff" font-family="system-ui,sans-serif" font-size="11" text-anchor="start">0.1.0</text>
</svg>